<svg width="37" height="32" viewBox="0 0 37 32" fill="none" xmlns="http://www.w3.org/2000/svg">
<path d="M15.7282 11.2934C15.1142 10.4277 14.2251 9.6873 12.8229 9.22313C13.4843 10.7199 12.7696 11.8128 11.6903 13.461C11.3191 14.0275 10.8969 14.6722 10.4892 15.4297L13.6407 20.864L17.0646 14.2637C16.7292 13.2291 16.355 12.1755 15.7289 11.2934H15.7282ZM17.8926 12.0385C20.015 7.2754 23.7148 7.23649 28.0526 7.19097C28.7576 7.18358 29.4813 7.17618 30.2377 7.14311L33.3538 1.64036L2.6259 1.55087L5.66072 7.04273C6.0463 7.05674 6.41398 7.06763 6.77932 7.07852C8.81888 7.13922 10.8051 7.19836 12.8653 7.62324L12.9229 7.6353C14.9025 8.19868 16.139 9.20484 16.9899 10.4048C17.3468 10.9165 17.6494 11.464 17.8926 12.0385ZM24.2735 13.5423C23.1887 11.7673 22.4359 10.5347 22.886 9.29822C21.076 9.92698 19.6279 11.2825 18.7326 14.2395L22.2892 20.5983L25.4018 15.4725C25.0128 14.7512 24.6213 14.1131 24.2735 13.5423ZM22.9397 22.5075L18.6988 30.0871L18.0459 31.2544L17.3588 30.1085L13.7294 24.0576L13.7182 24.0794L13.0104 22.8592L8.93677 15.8371L8.72667 15.4749L8.91537 15.1013C9.42857 14.0866 9.94682 13.2952 10.3939 12.6136C11.3588 11.1397 11.9136 10.2927 10.744 8.85156C9.41845 8.70177 8.09052 8.66208 6.73652 8.622C6.20271 8.60605 5.66577 8.5901 5.16269 8.56948L4.72498 8.55119L4.5141 8.16989L0.634202 1.14778L0 0L1.31314 0.00350039L34.6783 0.100383L36.0011 0.104273L35.3502 1.25361L31.3738 8.27533L31.166 8.64262L30.7435 8.66597C29.8486 8.71577 28.9436 8.72511 28.0647 8.73445C27.0679 8.74456 26.11 8.75468 25.2065 8.83677C23.8918 9.95149 24.5062 10.9596 25.5956 12.7369C26.0177 13.4279 26.4979 14.2131 26.9776 15.1438L27.1753 15.5266L26.9504 15.8974L22.9397 22.5075ZM14.5664 22.4448L17.9973 28.169L21.3768 22.1316L17.9249 15.9643L14.5664 22.4448Z" fill="url(#paint0_linear_1_659)"/>
<defs>
<linearGradient id="paint0_linear_1_659" x1="18.0006" y1="6.83689" x2="18.0006" y2="31.2544" gradientUnits="userSpaceOnUse">
<stop stopColor="#28E0B2"/>
<stop offset="0.9999" stopColor="#67FFD9"/>
<stop offset="1" stopColor="#16866A"/>
</linearGradient>
</defs>
</svg>
